<?xml version="1.0" encoding="UTF-8"?>
<svg id="Layer_1" data-name="Layer 1" xmlns="http://www.w3.org/2000/svg" viewBox="0 0 663.34 91.72">
  <defs>
    <style>
      .cls-1 {
        fill: #000;
      }

      .cls-1, .cls-2, .cls-3 {
        stroke-width: 0px;
      }

      .cls-2 {
        fill: blue;
      }

      .cls-3 {
        fill: #ff9d00;
      }

      .cls-4 {
        isolation: isolate;
      }
    </style>
  </defs>
  <rect class="cls-2" y=".17" width="91.54" height="91.54"/>
  <circle class="cls-1" cx="30.31" cy="24.18" r="8.85"/>
  <circle class="cls-1" cx="60.46" cy="24.18" r="8.85"/>
  <g class="cls-4">
    <g class="cls-4">
      <path class="cls-1" d="M115.94,13.49v34.42c0,7.52-2.17,13.65-6.49,18.38l-7.42-5.15c2.97-3.2,4.46-7.61,4.46-13.24V13.49h9.46ZM115.94,0v7.45h-9.46V0h9.46Z"/>
      <path class="cls-1" d="M123.07,32.12c0-12.49,6.19-18.74,18.56-18.74s18.56,6.25,18.56,18.74-6.19,18.7-18.56,18.7-18.51-6.23-18.56-18.7ZM141.63,43.65c6.07,0,9.1-3.89,9.1-11.68s-3.03-11.39-9.1-11.39-9.1,3.8-9.1,11.39,3.03,11.68,9.1,11.68Z"/>
      <path class="cls-1" d="M167.32,50.75V0h9.46v18.24c2.95-3.17,6.72-4.76,11.31-4.76,8.87,0,13.31,4.59,13.31,13.77v23.49h-9.46v-23.49c0-4.12-2.06-6.18-6.17-6.18-3.07,0-6.07,1.22-8.99,3.66v26.01h-9.46Z"/>
      <path class="cls-1" d="M210.32,50.75V13.49h7.32l1.18,5.47c3.59-3.64,7.68-5.47,12.28-5.47,8.87,0,13.31,4.59,13.31,13.77v23.49h-9.46v-23.49c0-4.12-2.06-6.18-6.17-6.18-3.07,0-6.07,1.22-8.99,3.66v26.01h-9.46Z"/>
      <path class="cls-1" d="M253.32,0h9.46v16.33c2.83-1.89,5.98-2.84,9.46-2.84,10.66,0,15.99,5.96,15.99,17.89,0,12.92-6.1,19.38-18.31,19.38-5.14,0-10.67-.51-16.59-1.53V0ZM262.78,42.13c2.16.69,4.67,1.03,7.53,1.03,5.71,0,8.56-4.01,8.56-12.03,0-6.55-2.46-9.83-7.39-9.83-3.19,0-6.09.64-8.71,1.92v18.92Z"/>
      <path class="cls-1" d="M329.08,13.49v37.26h-7.39l-1.14-4.76c-4.31,3.17-8.87,4.76-13.7,4.76-7.66,0-11.49-4.51-11.49-13.52V13.49h9.46v23.49c0,4.12,1.81,6.18,5.42,6.18,3.07,0,6.2-1.22,9.38-3.65V13.49h9.46Z"/>
      <path class="cls-1" d="M337.47,7.45h6.99l1.43,6.03h9.42v7.45h-8.39v17.14c0,3.48,1.51,5.22,4.53,5.22h3.85v7.45h-8.42c-6.28,0-9.42-3.35-9.42-10.04V7.45Z"/>
      <path class="cls-1" d="M371.19,0v50.75h-9.46V0h9.46Z"/>
      <path class="cls-1" d="M395.92,13.49c11.37,0,17.06,5.77,17.06,17.32,0,1.54-.11,3.08-.32,4.61h-24.87c0,5.25,3.88,7.88,11.63,7.88,3.78,0,7.57-.36,11.35-1.06v7.45c-3.31.71-7.33,1.06-12.06,1.06-13.58,0-20.38-6.35-20.38-19.06s5.86-18.21,17.59-18.21ZM387.78,28.89h15.99v-.28c0-5.16-2.62-7.74-7.85-7.74s-7.71,2.67-8.14,8.02Z"/>
      <path class="cls-1" d="M420.08,50.75V13.49h7.32l1.18,4.76c3.28-3.17,6.76-4.76,10.42-4.76v7.59c-3.52,0-6.67,1.46-9.46,4.37v25.3h-9.46Z"/>
      <path class="cls-1" d="M477.78,47.91c0,10.88-6.58,16.33-19.73,16.33-4.62,0-8.71-.59-12.28-1.78v-7.45c3.64,1.18,7.76,1.78,12.35,1.78,6.8,0,10.21-2.84,10.21-8.52-2.81,1.18-5.83,1.77-9.06,1.77-11.13,0-16.7-6.04-16.7-18.13s6.48-18.42,19.45-18.42c4.35,0,9.61.51,15.77,1.53v32.9ZM468.32,21.93c-1.55-.57-3.75-.85-6.6-.85-6.54,0-9.81,3.58-9.81,10.75s2.82,10.4,8.46,10.4c2.71,0,5.36-.64,7.96-1.92v-18.38Z"/>
      <path class="cls-1" d="M484.92,39.15c0-7.4,5.42-11.11,16.27-11.11,2.55,0,5.09.24,7.64.71v-2.8c0-3.34-2.42-5-7.24-5-4.09,0-8.64.59-13.63,1.77v-7.45c5-1.18,9.54-1.77,13.63-1.77,11.13,0,16.7,4.09,16.7,12.28v24.99h-5.5l-3.35-3.34c-3.26,2.22-6.85,3.34-10.78,3.34-9.16,0-13.74-3.87-13.74-11.61ZM501.19,34.43c-4.54,0-6.82,1.54-6.82,4.61,0,3.31,1.9,4.97,5.71,4.97,3.14,0,6.05-.97,8.74-2.91v-5.96c-2.38-.47-4.92-.71-7.64-.71Z"/>
      <path class="cls-1" d="M527.2,50.75V13.49h7.32l1.11,5.39c3.35-3.6,7.39-5.39,12.1-5.39s7.93,1.7,9.67,5.11c3.83-3.41,7.84-5.11,12.03-5.11,8.61,0,12.92,4.72,12.92,14.16v23.1h-9.46v-23.46c0-4.14-1.88-6.21-5.64-6.21-2.81,0-5.51,1.25-8.1,3.76v25.91h-9.46v-23.35c0-4.21-1.74-6.32-5.21-6.32-2.76,0-5.37,1.25-7.82,3.76v25.91h-9.46Z"/>
      <path class="cls-1" d="M607.07,13.49c11.37,0,17.06,5.77,17.06,17.32,0,1.54-.11,3.08-.32,4.61h-24.87c0,5.25,3.88,7.88,11.63,7.88,3.78,0,7.57-.36,11.35-1.06v7.45c-3.31.71-7.33,1.06-12.06,1.06-13.58,0-20.38-6.35-20.38-19.06s5.86-18.21,17.59-18.21ZM598.93,28.89h15.99v-.28c0-5.16-2.62-7.74-7.85-7.74s-7.71,2.67-8.14,8.02Z"/>
      <path class="cls-1" d="M631.22,48.98v-7.81c4.16,1.66,8.97,2.48,14.42,2.48,4.07,0,6.1-1.3,6.1-3.9s-1.37-3.73-4.1-3.73h-6.78c-7.61,0-11.42-3.73-11.42-11.18s5.55-11.71,16.66-11.71c4.71,0,9.15.71,13.31,2.13v7.81c-4.16-1.66-8.68-2.48-13.56-2.48-5.12,0-7.67,1.3-7.67,3.9s1.49,3.73,4.46,3.73h6.07c8.33,0,12.49,3.73,12.49,11.18s-5.3,11.71-15.92,11.71c-5.21,0-9.9-.71-14.06-2.13Z"/>
    </g>
  </g>
  <rect class="cls-3" x="102.71" y="70.45" width="560.63" height="21.27"/>
</svg>