<?xml version="1.0" encoding="UTF-8"?>
<svg id="Layer_1" data-name="Layer 1" xmlns="http://www.w3.org/2000/svg" version="1.1" viewBox="0 0 678.6 111.3">
  <defs>
    <style>
      .cls-1 {
        fill: #000;
      }

      .cls-1, .cls-2, .cls-3 {
        stroke-width: 0px;
      }

      .cls-2 {
        fill: blue;
      }

      .cls-3 {
        fill: #ff9d00;
      }

      .cls-4 {
        isolation: isolate;
      }
    </style>
  </defs>
  <rect class="cls-2" x="7.8" y="10.7" width="91.5" height="91.5"/>
  <circle class="cls-1" cx="38.1" cy="34.7" r="8.9"/>
  <circle class="cls-1" cx="68.3" cy="34.7" r="8.9"/>
  <g class="cls-4">
    <g class="cls-4">
      <path class="cls-1" d="M123.8,24v34.4c0,7.5-2.2,13.7-6.5,18.4l-7.4-5.1c3-3.2,4.5-7.6,4.5-13.2V24h9.5ZM123.8,10.6v7.5h-9.5v-7.5h9.5Z"/>
      <path class="cls-1" d="M130.9,42.7c0-12.5,6.2-18.7,18.6-18.7s18.6,6.2,18.6,18.7-6.2,18.7-18.6,18.7-18.5-6.2-18.6-18.7ZM149.5,54.2c6.1,0,9.1-3.9,9.1-11.7s-3-11.4-9.1-11.4-9.1,3.8-9.1,11.4,3,11.7,9.1,11.7Z"/>
      <path class="cls-1" d="M175.2,61.3V10.6h9.5v18.2c2.9-3.2,6.7-4.8,11.3-4.8,8.9,0,13.3,4.6,13.3,13.8v23.5h-9.5v-23.5c0-4.1-2.1-6.2-6.2-6.2s-6.1,1.2-9,3.7v26h-9.5Z"/>
      <path class="cls-1" d="M218.2,61.3V24h7.3l1.2,5.5c3.6-3.6,7.7-5.5,12.3-5.5,8.9,0,13.3,4.6,13.3,13.8v23.5h-9.5v-23.5c0-4.1-2.1-6.2-6.2-6.2s-6.1,1.2-9,3.7v26h-9.5Z"/>
      <path class="cls-1" d="M261.2,10.6h9.5v16.3c2.8-1.9,6-2.8,9.5-2.8,10.7,0,16,6,16,17.9s-6.1,19.4-18.3,19.4-10.7-.5-16.6-1.5V10.6ZM270.6,52.7c2.2.7,4.7,1,7.5,1,5.7,0,8.6-4,8.6-12s-2.5-9.8-7.4-9.8-6.1.6-8.7,1.9v18.9Z"/>
      <path class="cls-1" d="M336.9,24v37.3h-7.4l-1.1-4.8c-4.3,3.2-8.9,4.8-13.7,4.8-7.7,0-11.5-4.5-11.5-13.5v-23.7h9.5v23.5c0,4.1,1.8,6.2,5.4,6.2s6.2-1.2,9.4-3.7v-26h9.5Z"/>
      <path class="cls-1" d="M345.3,18h7l1.4,6h9.4v7.5h-8.4v17.1c0,3.5,1.5,5.2,4.5,5.2h3.9v7.5h-8.4c-6.3,0-9.4-3.3-9.4-10V18Z"/>
      <path class="cls-1" d="M379,10.6v50.8h-9.5V10.6h9.5Z"/>
      <path class="cls-1" d="M403.8,24c11.4,0,17.1,5.8,17.1,17.3s-.1,3.1-.3,4.6h-24.9c0,5.3,3.9,7.9,11.6,7.9s7.6-.4,11.3-1.1v7.5c-3.3.7-7.3,1.1-12.1,1.1-13.6,0-20.4-6.4-20.4-19.1s5.9-18.2,17.6-18.2ZM395.6,39.4h16v-.3c0-5.2-2.6-7.7-7.9-7.7s-7.7,2.7-8.1,8Z"/>
      <path class="cls-1" d="M427.9,61.3V24h7.3l1.2,4.8c3.3-3.2,6.8-4.8,10.4-4.8v7.6c-3.5,0-6.7,1.5-9.5,4.4v25.3h-9.5Z"/>
      <path class="cls-1" d="M485.6,58.5c0,10.9-6.6,16.3-19.7,16.3s-8.7-.6-12.3-1.8v-7.5c3.6,1.2,7.8,1.8,12.3,1.8,6.8,0,10.2-2.8,10.2-8.5-2.8,1.2-5.8,1.8-9.1,1.8-11.1,0-16.7-6-16.7-18.1s6.5-18.4,19.4-18.4,9.6.5,15.8,1.5v32.9ZM476.2,32.5c-1.5-.6-3.7-.9-6.6-.9-6.5,0-9.8,3.6-9.8,10.8s2.8,10.4,8.5,10.4,5.4-.6,8-1.9v-18.4Z"/>
      <path class="cls-1" d="M492.8,49.7c0-7.4,5.4-11.1,16.3-11.1s5.1.2,7.6.7v-2.8c0-3.3-2.4-5-7.2-5s-8.6.6-13.6,1.8v-7.5c5-1.2,9.5-1.8,13.6-1.8,11.1,0,16.7,4.1,16.7,12.3v25h-5.5l-3.4-3.3c-3.3,2.2-6.9,3.3-10.8,3.3-9.2,0-13.7-3.9-13.7-11.6ZM509,45c-4.5,0-6.8,1.5-6.8,4.6s1.9,5,5.7,5,6.1-1,8.7-2.9v-6c-2.4-.5-4.9-.7-7.6-.7Z"/>
      <path class="cls-1" d="M535,61.3V24h7.3l1.1,5.4c3.4-3.6,7.4-5.4,12.1-5.4s7.9,1.7,9.7,5.1c3.8-3.4,7.8-5.1,12-5.1,8.6,0,12.9,4.7,12.9,14.2v23.1h-9.5v-23.5c0-4.1-1.9-6.2-5.6-6.2s-5.5,1.3-8.1,3.8v25.9h-9.5v-23.4c0-4.2-1.7-6.3-5.2-6.3s-5.4,1.3-7.8,3.8v25.9h-9.5Z"/>
      <path class="cls-1" d="M614.9,24c11.4,0,17.1,5.8,17.1,17.3s-.1,3.1-.3,4.6h-24.9c0,5.3,3.9,7.9,11.6,7.9s7.6-.4,11.3-1.1v7.5c-3.3.7-7.3,1.1-12.1,1.1-13.6,0-20.4-6.4-20.4-19.1s5.9-18.2,17.6-18.2ZM606.8,39.4h16v-.3c0-5.2-2.6-7.7-7.9-7.7s-7.7,2.7-8.1,8Z"/>
      <path class="cls-1" d="M639.1,59.5v-7.8c4.2,1.7,9,2.5,14.4,2.5s6.1-1.3,6.1-3.9-1.4-3.7-4.1-3.7h-6.8c-7.6,0-11.4-3.7-11.4-11.2s5.6-11.7,16.7-11.7,9.1.7,13.3,2.1v7.8c-4.2-1.7-8.7-2.5-13.6-2.5s-7.7,1.3-7.7,3.9,1.5,3.7,4.5,3.7h6.1c8.3,0,12.5,3.7,12.5,11.2s-5.3,11.7-15.9,11.7-9.9-.7-14.1-2.1Z"/>
    </g>
  </g>
  <rect class="cls-3" x="110.5" y="81" width="558.5" height="21.3"/>
</svg>